<svg xmlns="http://www.w3.org/2000/svg" viewBox="0 0 34 34"><defs/><g fill="none" fill-rule="evenodd"><rect width="24.38" height="24.692" x="4.78" y="4.842" fill="#2C7A7B" rx="3"/><path fill="#38B2AC" d="M13.05 0c0 11.418 9.14 20.674 20.413 20.674v10.218a3 3 0 01-3 3H3a3 3 0 01-3-3V3a3 3 0 013-3h10.05zM2.678 4.745c.37 0 .67-.304.67-.678 0-.374-.3-.678-.67-.678-.37 0-.67.304-.67.678 0 .374.3.678.67.678zm0 2.711c.37 0 .67-.303.67-.678 0-.374-.3-.678-.67-.678-.37 0-.67.304-.67.678 0 .375.3.678.67.678zm0 2.373c.37 0 .67-.304.67-.678 0-.375-.3-.678-.67-.678-.37 0-.67.303-.67.678 0 .374.3.678.67.678zm0 2.71c.37 0 .67-.303.67-.677 0-.374-.3-.678-.67-.678-.37 0-.67.304-.67.678 0 .374.3.678.67.678zm0 2.373c.37 0 .67-.303.67-.678 0-.374-.3-.677-.67-.677-.37 0-.67.303-.67.677 0 .375.3.678.67.678zm0 2.712c.37 0 .67-.304.67-.678 0-.375-.3-.678-.67-.678-.37 0-.67.303-.67.678 0 .374.3.678.67.678zm0 2.71c.37 0 .67-.303.67-.677 0-.374-.3-.678-.67-.678-.37 0-.67.304-.67.678 0 .374.3.678.67.678zm0 2.373c.37 0 .67-.303.67-.677 0-.375-.3-.678-.67-.678-.37 0-.67.303-.67.678 0 .374.3.677.67.677zm0 2.712c.37 0 .67-.304.67-.678 0-.375-.3-.678-.67-.678-.37 0-.67.303-.67.678 0 .374.3.678.67.678zm0 2.372c.37 0 .67-.303.67-.678 0-.374-.3-.678-.67-.678-.37 0-.67.304-.67.678 0 .375.3.678.67.678zm0 2.711c.37 0 .67-.303.67-.677 0-.375-.3-.678-.67-.678-.37 0-.67.303-.67.678 0 .374.3.677.67.677z"/></g></svg>