<svg xmlns="http://www.w3.org/2000/svg" viewBox="0 0 78 105"><defs/><g fill="none" fill-rule="evenodd"><g transform="translate(1.01)"><rect width="55.931" height="55.195" x="10.967" y="10.823" fill="#319795" rx="3"/><path fill="#38B2AC" d="M29.94 0c0 25.522 20.965 46.212 46.828 46.212v26.546a3 3 0 01-3 3H3a3 3 0 01-3-3V3a3 3 0 013-3h26.94zM6.14 10.606c.848 0 1.536-.678 1.536-1.515 0-.837-.688-1.515-1.536-1.515-.848 0-1.535.678-1.535 1.515 0 .837.687 1.515 1.535 1.515zm0 6.06c.848 0 1.536-.678 1.536-1.514 0-.837-.688-1.516-1.536-1.516-.848 0-1.535.679-1.535 1.516 0 .836.687 1.515 1.535 1.515zm0 5.304c.848 0 1.536-.679 1.536-1.515 0-.837-.688-1.516-1.536-1.516-.848 0-1.535.679-1.535 1.516 0 .836.687 1.515 1.535 1.515zm0 6.06c.848 0 1.536-.678 1.536-1.515 0-.837-.688-1.515-1.536-1.515-.848 0-1.535.678-1.535 1.515 0 .837.687 1.515 1.535 1.515zm0 5.303c.848 0 1.536-.678 1.536-1.515 0-.837-.688-1.515-1.536-1.515-.848 0-1.535.678-1.535 1.515 0 .837.687 1.515 1.535 1.515zm0 6.06c.848 0 1.536-.677 1.536-1.514s-.688-1.515-1.536-1.515c-.848 0-1.535.678-1.535 1.515 0 .837.687 1.515 1.535 1.515zm0 6.062c.848 0 1.536-.679 1.536-1.516 0-.836-.688-1.515-1.536-1.515-.848 0-1.535.679-1.535 1.515 0 .837.687 1.516 1.535 1.516zm0 5.303c.848 0 1.536-.679 1.536-1.516 0-.836-.688-1.515-1.536-1.515-.848 0-1.535.679-1.535 1.515 0 .837.687 1.516 1.535 1.516zm0 6.06c.848 0 1.536-.678 1.536-1.515 0-.837-.688-1.515-1.536-1.515-.848 0-1.535.678-1.535 1.515 0 .837.687 1.515 1.535 1.515zm0 5.303c.848 0 1.536-.678 1.536-1.515 0-.837-.688-1.515-1.536-1.515-.848 0-1.535.678-1.535 1.515 0 .837.687 1.515 1.535 1.515zm0 6.06c.848 0 1.536-.678 1.536-1.514 0-.837-.688-1.515-1.536-1.515-.848 0-1.535.678-1.535 1.515 0 .836.687 1.515 1.535 1.515z"/></g><path fill="#000" d="M4.858 100.735V88.497H0v-2.689h13.146v2.69H8.287v12.237H4.858zm18.147-4.695h-6.77c.098.821.37 1.416.814 1.784.444.369 1.075.553 1.894.553.536 0 1.068-.087 1.597-.26a5.172 5.172 0 001.45-.741l.845 2.107c-.507.39-1.124.696-1.85.918a7.438 7.438 0 01-2.19.334c-1.75 0-3.128-.476-4.137-1.43-1.008-.952-1.512-2.25-1.512-3.89 0-1.044.218-1.969.655-2.776a4.77 4.77 0 011.82-1.888c.776-.452 1.657-.678 2.645-.678 1.452 0 2.605.466 3.459 1.398.853.932 1.28 2.198 1.28 3.797v.772zm-4.303-3.835c-.65 0-1.169.183-1.555.548-.386.366-.624.894-.715 1.585h4.382c-.046-.704-.246-1.236-.602-1.595-.356-.358-.859-.538-1.51-.538zm11.537 8.53c-1.03 0-1.973-.108-2.828-.323-.856-.216-1.594-.525-2.215-.929l.908-2.17a7.917 7.917 0 002 .877 7.95 7.95 0 002.203.313c.53 0 .943-.08 1.238-.24.295-.16.443-.38.443-.658a.667.667 0 00-.307-.584c-.204-.139-.587-.264-1.147-.375l-1.817-.376c-1.076-.223-1.867-.567-2.374-1.033-.508-.466-.761-1.102-.761-1.91 0-.639.2-1.202.602-1.69.401-.486.97-.869 1.704-1.147s1.57-.417 2.51-.417c.802 0 1.582.111 2.34.334a7.455 7.455 0 012.044.939l-.909 2.086c-1.18-.75-2.347-1.126-3.498-1.126-.53 0-.946.083-1.25.25-.302.167-.454.403-.454.71 0 .222.091.396.273.521.182.125.5.243.954.355l1.886.396c1.135.237 1.965.595 2.487 1.075.523.48.784 1.13.784 1.95 0 .988-.428 1.764-1.284 2.327-.855.563-2.033.845-3.532.845zm12.455-2.393c.359 0 .734-.021 1.124-.064l-.187 2.37c-.453.058-.906.087-1.36.087-1.749 0-3.026-.352-3.83-1.056-.805-.704-1.207-1.775-1.207-3.212v-4.053h-2.18v-2.436h2.18v-3.104h3.538v3.104h2.882v2.436h-2.882v4.031c0 1.265.64 1.897 1.922 1.897zm7.263 2.393c-1.03 0-1.972-.108-2.828-.323-.856-.216-1.594-.525-2.215-.929l.909-2.17a7.917 7.917 0 001.999.877 7.95 7.95 0 002.203.313c.53 0 .943-.08 1.238-.24.296-.16.443-.38.443-.658a.667.667 0 00-.306-.584c-.205-.139-.587-.264-1.148-.375l-1.817-.376c-1.075-.223-1.867-.567-2.374-1.033-.507-.466-.76-1.102-.76-1.91 0-.639.2-1.202.601-1.69.401-.486.97-.869 1.704-1.147s1.571-.417 2.51-.417c.803 0 1.583.111 2.34.334a7.455 7.455 0 012.044.939l-.908 2.086c-1.181-.75-2.348-1.126-3.499-1.126-.53 0-.946.083-1.249.25-.303.167-.454.403-.454.71 0 .222.09.396.272.521.182.125.5.243.954.355l1.886.396c1.136.237 1.965.595 2.487 1.075.523.48.784 1.13.784 1.95 0 .988-.428 1.764-1.283 2.327-.856.563-2.034.845-3.533.845zm13.664-10.662h3.202L60.42 105h-3.31l2.033-4.612-4.37-10.315h3.397l2.682 6.951 2.77-6.951zm9.34 10.662c-1.03 0-1.972-.108-2.827-.323-.856-.216-1.594-.525-2.215-.929l.908-2.17a7.917 7.917 0 002 .877 7.95 7.95 0 002.203.313c.53 0 .943-.08 1.238-.24.295-.16.443-.38.443-.658a.667.667 0 00-.307-.584c-.204-.139-.587-.264-1.147-.375l-1.817-.376c-1.076-.223-1.867-.567-2.374-1.033-.508-.466-.761-1.102-.761-1.91 0-.639.2-1.202.602-1.69.401-.486.97-.869 1.704-1.147s1.57-.417 2.51-.417c.802 0 1.582.111 2.34.334a7.455 7.455 0 012.044.939l-.909 2.086c-1.18-.75-2.347-1.126-3.498-1.126-.53 0-.946.083-1.25.25-.302.167-.454.403-.454.71 0 .222.091.396.273.521.182.125.5.243.954.355l1.886.396c1.135.237 1.965.595 2.487 1.075.523.48.784 1.13.784 1.95 0 .988-.428 1.764-1.284 2.327-.855.563-2.033.845-3.532.845z"/></g></svg>