<svg xmlns="http://www.w3.org/2000/svg" width="121" height="94" viewBox="0 0 121 94">
  <g fill="none" fill-rule="evenodd">
    <path fill="#FFF" d="M7.62884055,0 L36.5670159,0 C38.4622757,0 40.2128394,0.999700469 41.1585314,2.62147081 L45.9213568,9.04654929 C46.8670488,10.6683196 48.6178709,11.6680201 50.5128723,11.6680201 L121,11.6680201 L121,85.0240401 C121,88.8766377 117.8371,92 113.935732,92 L7.06426759,92 C3.1629005,92 0,88.8766377 0,85.0240401 L0,19.8054492 C0,14.4132415 0.843629616,9.05318335 2.50117448,3.91536593 C3.1083811,1.60952286 5.2162924,0 7.62884055,0 Z"/>
    <rect width="93" height="39" x="11" y="10" fill="#EBF0F3"/>
    <path fill="#CBD5E0" d="M115.701811,4 L86.5401939,4 C84.4663939,4 82.5830239,5.19150873 81.7213091,7.04886806 L76.7311149,17.8029786 C75.8691418,19.6603379 73.9860301,20.8518466 71.9122302,20.8518466 L0,20.8518466 L0,87.0438077 C0,90.8854883 3.16289374,94 7.06425251,94 L113.935747,94 C117.837106,94 121,90.8854883 121,87.0438077 L121,9.21714425 C121,6.33594739 118.627765,4 115.701811,4 Z"/>
  </g>
</svg>
